<svg width="276" height="312" viewBox="0 0 276 312" fill="none" xmlns="http://www.w3.org/2000/svg">
<rect x="90.3477" y="187.57" width="66.5758" height="66.5758" transform="rotate(-45 90.3477 187.57)" fill="#0A0A0A"/>
<rect x="54.5" y="114.993" width="117.272" height="117.272" transform="rotate(-45 54.5 114.993)" fill="#0A0A0A"/>
<rect x="7.07107" y="137.57" width="184.553" height="184.553" transform="rotate(-45 7.07107 137.57)" stroke="#0A0A0A" stroke-width="10"/>
<path d="M45 201.07L137 293.07L229 201.07" stroke="#0A0A0A" stroke-width="5"/>
<path d="M57.1774 51.0699L3.5 105.586V110.618L80.6613 187.78L88.2097 180.231H97.4355V186.102L112.532 201.199V203.715L104.145 212.102V297.651L117.565 311.07H130.984V176.876L99.1129 145.005V134.941L68.9193 104.747H57.1774V51.0699Z" fill="url(#paint0_linear_845_3571)"/>
<path d="M218.209 51.0699L271.887 105.586V110.618L194.725 187.78L187.177 180.231H177.951V186.102L162.854 201.199V203.715L171.242 212.102V297.651L157.822 311.07H144.403V176.876L176.274 145.005V134.941L206.467 104.747H218.209V51.0699Z" fill="url(#paint1_linear_845_3571)"/>
<path d="M176.275 99.9714V93.1901C166.942 93.1901 157.991 89.4826 151.391 82.8832C144.792 76.2838 141.085 67.3331 141.085 58.0001H134.303C134.303 62.6213 133.393 67.1973 131.625 71.4668C129.856 75.7362 127.264 79.6155 123.996 82.8832C120.729 86.1509 116.849 88.7429 112.58 90.5114C108.31 92.2798 103.734 93.1901 99.1133 93.1901V99.9714C103.734 99.9714 108.31 100.882 112.58 102.65C116.849 104.419 120.729 107.011 123.996 110.278C127.264 113.546 129.856 117.425 131.625 121.695C133.393 125.964 134.303 130.54 134.303 135.161H141.085C141.085 125.828 144.792 116.878 151.391 110.278C157.991 103.679 166.942 99.9714 176.275 99.9714Z" fill="url(#paint2_linear_845_3571)"/>
<path d="M259.5 104.651L237.226 82.5133L235.774 81.0696V96.4696L244.005 104.651V112.351L213.5 142.67V158.07L259.5 112.351V104.651Z" fill="#0A0A0A"/>
<path d="M176.5 152.07L150.5 178.07V184.57L176.5 158.57V152.07Z" fill="#0A0A0A"/>
<path d="M167 291.07V274.57V265.57L160.5 259.07V284.57L149.5 295.57V300.57H157.5L167 291.07Z" fill="#0A0A0A"/>
<path d="M179.5 147.07V136.635V135.939L184.5 131.07V142.2L179.5 147.07Z" fill="#0A0A0A"/>
<path d="M195.5 131.07V120.635V119.939L200.5 115.07V126.2L195.5 131.07Z" fill="#0A0A0A"/>
<path d="M187.5 139.07V128.635V127.939L192.5 123.07V134.2L187.5 139.07Z" fill="#0A0A0A"/>
<path d="M203.5 123.07V112.635V111.939L208.5 107.07V118.2L203.5 123.07Z" fill="#0A0A0A"/>
<path d="M16.5 104.651L38.7737 82.5133L40.2263 81.0696V96.4696L31.9947 104.651V112.351L62.5 142.67V158.07L16.5 112.351V104.651Z" fill="#0A0A0A"/>
<path d="M99.5 152.07L125.5 178.07V184.57L99.5 158.57V152.07Z" fill="#0A0A0A"/>
<path d="M109 291.07V274.57V265.57L115.5 259.07V284.57L126.5 295.57V300.57H118.5L109 291.07Z" fill="#0A0A0A"/>
<path d="M96.5 147.07V136.635V135.939L91.5 131.07V142.2L96.5 147.07Z" fill="#0A0A0A"/>
<path d="M80.5 131.07V120.635V119.939L75.5 115.07V126.2L80.5 131.07Z" fill="#0A0A0A"/>
<path d="M88.5 139.07V128.635V127.939L83.5 123.07V134.2L88.5 139.07Z" fill="#0A0A0A"/>
<path d="M72.5 123.07V112.635V111.939L67.5 107.07V118.2L72.5 123.07Z" fill="#0A0A0A"/>
<defs>
<linearGradient id="paint0_linear_845_3571" x1="67.2419" y1="51.0699" x2="67.2419" y2="311.07" gradientUnits="userSpaceOnUse">
<stop stop-color="#FFED9D"/>
<stop offset="1" stop-color="#F5D64E"/>
</linearGradient>
<linearGradient id="paint1_linear_845_3571" x1="208.145" y1="51.0699" x2="208.145" y2="311.07" gradientUnits="userSpaceOnUse">
<stop stop-color="#FFED9D"/>
<stop offset="1" stop-color="#F5D64E"/>
</linearGradient>
<linearGradient id="paint2_linear_845_3571" x1="137.694" y1="58.0001" x2="137.694" y2="135.161" gradientUnits="userSpaceOnUse">
<stop stop-color="#FFED9D"/>
<stop offset="1" stop-color="#F5D64E"/>
</linearGradient>
</defs>
</svg>
